# ProBuilder 5.0.6
# https://unity3d.com/unity/features/worldbuilding/probuilder
# 11/10/2022 15:30:01

mtllib ./Cube_(13).mtl
o Cube (13)

g Cube (13)
v 27.37 41.3 -5.270001
v 27.37 48.06173 -5.270001
v 27.37 41.3 24.78468
v 27.37 48.06173 24.78468
v 28.17147 48.06173 -5.270001
v 28.17147 48.06173 24.78468
v 28.17147 41.3 -5.270001
v 28.17147 41.3 24.78468

vt 0 -4.768372E-07
vt -6.761734 -4.768372E-07
vt 0 30.05468
vt -6.761734 30.05468
vt -0.8014717 -4.768372E-07
vt -0.8014717 30.05468
vt 6.761734 -4.768372E-07
vt 6.761734 30.05468
vt 0.8014717 -4.768372E-07
vt 0.8014717 30.05468
vt 0 -0.8014717
vt 6.761734 -0.8014717
vt -6.761734 -0.8014717

vn -1 0 0
vn 0 1 0
vn 1 0 0
vn 0 -1 0
vn 0 0 1
vn 0 0 -1

usemtl ProBuilder_Default_URP
f 3/3/1 4/4/1 2/2/1 1/1/1
f 4/3/2 6/6/2 5/5/2 2/1/2
f 6/8/3 8/3/3 7/1/3 5/7/3
f 8/10/4 3/3/4 1/1/4 7/9/4
f 8/11/5 6/12/5 4/7/5 3/1/5
f 1/1/6 2/2/6 5/13/6 7/11/6

