# ProBuilder 5.0.6
# https://unity3d.com/unity/features/worldbuilding/probuilder
# 12/10/2022 09:10:13

mtllib ./Cube_(11).mtl
o Cube (11)

g Cube (11)
v -29.00647 9.846687E-05 -6.850006
v -29.00647 9.846687E-05 -5.56523
v -29.00647 18.32121 -6.850006
v -29.00647 18.32121 -5.56523
v -70.40001 9.846687E-05 -5.565226
v -70.40001 18.32121 -5.565226
v -70.40001 9.846687E-05 -6.85
v -70.40001 18.32121 -6.85

vt 0.642388 -3.274029
vt -0.6423867 -3.274029
vt 0.6423883 15.04708
vt -0.6423871 15.04708
vt 20.69676 -3.274037
vt -20.69677 -3.274037
vt 20.69677 15.04707
vt -20.69677 15.04707
vt -0.6423883 20.69677
vt 0.6423871 20.69677
vt -0.642388 -20.69677
vt 0.6423869 -20.69677

vn 1 -4.164264E-07 -1.192093E-07
vn 1.192093E-07 -1.951999E-08 1
vn -1 -3.123198E-07 1.192093E-07
vn -1.192093E-07 0 -1
vn 0 1 0
vn 0 -1 0

usemtl ProBuilder_Default_URP
f 3/3/1 4/4/1 2/2/1 1/1/1
f 4/7/2 6/8/2 5/6/2 2/5/2
f 6/3/3 8/4/3 7/2/3 5/1/3
f 8/7/4 3/8/4 1/6/4 7/5/4
f 8/11/5 6/12/5 4/10/5 3/9/5
f 1/10/6 2/9/6 5/11/6 7/12/6

