# ProBuilder 5.0.6
# https://unity3d.com/unity/features/worldbuilding/probuilder
# 12/10/2022 09:10:46

mtllib ./Cube_(8).mtl
o Cube (8)

g Cube (8)
v 6.056999 41.4 -24.34033
v 6.056999 39.96205 -24.34033
v -39.25424 -2.178894 -24.34033
v -39.25424 -3.616844 -24.34033
v 6.056999 39.96205 -30.51544
v -39.25424 -3.616844 -30.51544
v 6.056999 41.4 -30.51544
v -39.25424 -2.178894 -30.51544

vt -5.960464E-08 4.362754E-07
vt -1.43795 4.362754E-07
vt -43.57889 45.31124
vt -45.01684 45.31124
vt 6.175111 0.9967796
vt -9.536743E-07 0.9967796
vt 6.17511 63.86352
vt 0 63.86352
vt 1.43795 5.662441E-07
vt 45.01684 45.31124
vt 43.57889 45.31124
vt -6.175111 4.494383E-07
vt 0 62.86674
vt -6.17511 62.86674
vt 43.57889 6.17511
vt 45.01684 6.17511
vt 43.57889 0
vt 45.01684 0
vt -5.960464E-08 6.175111
vt -1.43795 6.175111

vn 0 0 1
vn 0.6931946 -0.7207505 0
vn 0 0 -1
vn -0.6931946 0.7207505 0
vn -1 0 0
vn 1 0 0

usemtl ProBuilder_Default_URP
f 3/3/1 4/4/1 2/2/1 1/1/1
f 4/7/2 6/8/2 5/6/2 2/5/2
f 6/10/3 8/11/3 7/1/3 5/9/3
f 8/13/4 3/14/4 1/12/4 7/1/4
f 8/17/5 6/18/5 4/16/5 3/15/5
f 1/19/6 2/20/6 5/2/6 7/1/6

