# ProBuilder 5.0.6
# https://unity3d.com/unity/features/worldbuilding/probuilder
# 11/10/2022 15:34:18

mtllib ./Cube_(3).mtl
o Cube (3)

g Cube (3)
v 30.27 5.310001 11.01
v 25.69524 5.310001 11.01
v 30.27 6.33483 11.01
v 25.69524 6.33483 11.01
v 25.69524 5.310001 5.792892
v 25.69524 6.33483 5.792892
v 30.27 5.310001 5.792892
v 30.27 6.33483 5.792892

vt 0 0
vt -4.574764 0
vt 0 1.024829
vt -4.574764 1.024829
vt -5.217109 0
vt -5.217109 1.024829
vt 4.574764 0
vt 4.574764 1.024829
vt 5.217109 0
vt 5.217109 1.024829
vt 0 -5.217109
vt 4.574764 -5.217109
vt -4.574764 -5.217109

vn 0 -2.220446E-17 1
vn -1 0 0
vn 0 2.220446E-17 -1
vn 1 0 0
vn 0 1 2.220446E-17
vn 0 -1 -2.220446E-17

usemtl ProBuilder_Default_URP
f 3/3/1 4/4/1 2/2/1 1/1/1
f 4/3/2 6/6/2 5/5/2 2/1/2
f 6/8/3 8/3/3 7/1/3 5/7/3
f 8/10/4 3/3/4 1/1/4 7/9/4
f 8/11/5 6/12/5 4/7/5 3/1/5
f 1/1/6 2/2/6 5/13/6 7/11/6

