# ProBuilder 5.0.6
# https://unity3d.com/unity/features/worldbuilding/probuilder
# 12/10/2022 09:06:25

mtllib ./Cube_(7).mtl
o Cube (7)

g Cube (7)
v 13.47224 43.49105 -24.33345
v 6.073658 43.49105 -24.33345
v 13.47224 43.49105 -30.53933
v 6.073658 43.49105 -30.53933
v 13.47224 0.0001039505 -30.53933
v 6.073658 0.0001039505 -30.53933
v 13.47224 0.0001039505 -24.33345
v 6.073658 0.0001039505 -24.33345
v 6.073658 41.96404 -24.33345
v 13.47224 41.96404 -24.33345
v 6.073658 41.96404 -30.53933
v 13.47224 41.96404 -30.53933
v 32.70859 41.96404 -24.33345
v 32.70859 43.49105 -24.33345
v 32.70859 43.49105 -30.53933
v 32.70859 41.96404 -30.53933
v 6.083683 43.47033 -30.53933
v 6.083683 43.47033 -24.33345
v 6.083683 41.94332 -24.33345
v 6.083683 41.94332 -30.53933

vt 0 6.205881
vt 7.398582 6.205881
vt 0 1.907349E-06
vt 7.398582 1.907349E-06
vt -7.398582 9.536743E-07
vt -7.398582 6.205882
vt -7.398582 41.96394
vt 0 41.96394
vt -7.398582 43.49094
vt 0 43.49094
vt 6.205882 9.536743E-07
vt 6.205881 41.96394
vt 7.398582 41.96394
vt 7.398582 43.49094
vt -6.205882 9.536743E-07
vt -6.205881 41.96394
vt -6.205881 43.49094
vt -19.23635 43.49094
vt -19.23635 41.96394
vt 19.23635 1.907349E-06
vt 19.23635 6.205881
vt -19.23635 6.205881
vt -19.23635 1.907349E-06
vt 19.23635 41.96394
vt 19.23635 43.49094
vt -1.907349E-06 43.47022
vt -6.205881 43.47022
vt -6.205881 41.94321
vt -1.907349E-06 41.94321
vt 6.205881 43.49094

vn 0 1 2.220446E-17
vn 0 -1 -2.220446E-17
vn 0 2.272604E-08 1
vn -1 0 0
vn 0 2.272604E-08 -1
vn 1 0 0

usemtl ProBuilder_Default_URP
f 3/3/1 4/4/1 2/2/1 1/1/1
f 7/1/2 8/6/2 6/5/2 5/3/2
f 10/8/3 9/7/3 8/5/3 7/3/3
f 1/10/3 2/9/3 9/7/3 10/8/3
f 6/3/4 8/11/4 9/12/4 11/8/4
f 5/3/5 6/4/5 11/13/5 12/8/5
f 11/13/5 4/14/5 3/10/5 12/8/5
f 10/16/6 7/15/6 5/3/6 12/8/6
f 14/17/6 13/16/6 16/8/6 15/10/6
f 15/18/5 16/19/5 12/8/5 3/10/5
f 16/20/2 13/21/2 10/1/2 12/3/2
f 14/22/1 15/23/1 3/3/1 1/1/1
f 13/24/3 14/25/3 1/10/3 10/8/3
f 20/29/6 17/26/6 18/27/6 19/28/6
f 2/30/4 4/10/4 11/8/4 9/12/4

