# ProBuilder 5.0.6
# https://unity3d.com/unity/features/worldbuilding/probuilder
# 11/10/2022 15:28:33

mtllib ./Cube_(12).mtl
o Cube (12)

g Cube (12)
v 31.58695 29.53019 -24.33345
v 31.58695 50.19821 -24.33345
v 31.58695 29.53019 -1.046452
v 31.58695 50.19821 -1.046452
v 32.38842 50.19821 -24.33345
v 32.38842 50.19821 -1.046452
v 32.38842 29.53019 -24.33345
v 32.38842 29.53019 -1.046452

vt 13.90629 0
vt -6.761734 -4.768372E-07
vt 13.90629 23.28699
vt -6.761734 23.28699
vt 0 -4.768372E-07
vt -0.8014717 -4.768372E-07
vt 0 23.28699
vt -0.8014717 23.28699
vt 6.761734 -4.768372E-07
vt -13.90629 0
vt 6.761734 23.28699
vt -13.90629 23.28699
vt 0.8014717 0
vt 0.8014717 23.28699
vt -13.90629 -0.8014717
vt 6.761734 -0.8014717
vt 13.90629 -0.8014717
vt -6.761734 -0.8014717

vn -1 0 0
vn 0 1 0
vn 1 0 0
vn 0 -1 0
vn 0 0 1
vn 0 -2.307126E-08 -1

usemtl ProBuilder_Default_URP
f 3/3/1 4/4/1 2/2/1 1/1/1
f 4/7/2 6/8/2 5/6/2 2/5/2
f 6/11/3 8/12/3 7/10/3 5/9/3
f 8/14/4 3/7/4 1/5/4 7/13/4
f 8/15/5 6/16/5 4/9/5 3/10/5
f 1/1/6 2/2/6 5/18/6 7/17/6

