# ProBuilder 5.0.6
# https://unity3d.com/unity/features/worldbuilding/probuilder
# 12/10/2022 09:09:22

mtllib ./Plane.mtl
o Plane

g Plane
v 38.1 9.994859E-05 -38.60003
v 38.1 9.994859E-05 0.249984
v -0.08012322 9.994859E-05 -38.60003
v -0.08012322 9.994859E-05 0.249984
v 38.1 9.994866E-05 93.81013
v -0.08012822 9.994866E-05 93.81013
v -79.264 9.994862E-05 -38.60003
v -79.264 9.994862E-05 0.2499815
v -38.26025 9.994866E-05 93.81013

vt 0 -14.84582
vt 0 -7.422908
vt 7.294914 -14.84582
vt 7.294914 -7.422908
vt 1.917055E-07 10.45323
vt 7.294915 10.45323
vt 22.42424 -14.84582
vt 22.42424 -7.422908
vt 14.58983 10.45323

vn 0 5.2338 1.162137E-16

usemtl ProBuilder_Default_URP
f 3/3/1 4/4/1 2/2/1 1/1/1
f 4/4/1 6/6/1 5/5/1 2/2/1
f 7/7/1 8/8/1 4/4/1 3/3/1
f 8/8/1 9/9/1 6/6/1 4/4/1

