# ProBuilder 5.0.6
# https://unity3d.com/unity/features/worldbuilding/probuilder
# 11/10/2022 15:32:09

mtllib ./PolyShape.mtl
o PolyShape

g PolyShape
v -70.25439 6.380679 -12.26744
v -69.64012 6.380679 -13.03131
v -70.70477 6.380679 -13.71622
v -71.31572 6.380679 -14.30482
v -72.03041 6.380679 -15.29556
v -72.6817 6.380679 -16.80611
v -73.03391 6.380679 -18.14933
v -73.20668 6.380679 -19.57414
v -73.19277 6.380679 -21.02426
v -73.06134 6.380679 -22.76712
v -72.74471 6.380679 -23.96884
v -72.33775 6.38068 -24.75863
v -71.4713 6.380679 -25.46894
v -70.68411 6.380679 -26.01229
v -69.61485 6.38068 -26.57724
v -68.17978 6.380679 -26.60026
v -66.58438 6.380679 -26.43381
v -66.56989 6.380679 -27.12911
v -68.73175 6.380678 -27.45757
v -69.95518 6.380678 -27.2121
v -71.66072 6.380679 -26.81938
v -72.45625 6.380679 -25.94657
v -73.45573 6.380678 -24.64428
v -73.73013 6.38068 -23.03542
v -74.07605 6.380679 -21.52402
v -73.84909 6.380679 -19.12511
v -73.63818 6.380679 -17.94297
v -73.08938 6.38068 -16.26194
v -72.54489 6.380679 -15.01417
v -72.01218 6.380679 -14.2408
v -71.16344 6.380679 -13.18271
v -70.70477 9.918213E-05 -13.71622
v -69.64012 9.918213E-05 -13.03131
v -70.25439 9.918213E-05 -12.26744
v -71.16344 9.918213E-05 -13.18271
v -71.31572 9.918213E-05 -14.30482
v -72.01218 9.918213E-05 -14.2408
v -72.03041 9.918213E-05 -15.29556
v -72.54489 9.918213E-05 -15.01417
v -73.08938 0.0001001358 -16.26194
v -72.6817 9.918213E-05 -16.80611
v -73.63818 9.918213E-05 -17.94297
v -73.03391 9.918213E-05 -18.14933
v -73.84909 9.918213E-05 -19.12511
v -73.20668 9.918213E-05 -19.57414
v -74.07605 9.918213E-05 -21.52402
v -73.19277 9.918213E-05 -21.02426
v -73.06134 9.918213E-05 -22.76712
v -73.73013 0.0001001358 -23.03542
v -72.74471 9.918213E-05 -23.96884
v -73.45573 9.822845E-05 -24.64428
v -72.33775 0.0001001358 -24.75863
v -72.45625 9.918213E-05 -25.94657
v -71.4713 9.918213E-05 -25.46894
v -71.66072 9.918213E-05 -26.81938
v -70.68411 9.918213E-05 -26.01229
v -69.95518 9.822845E-05 -27.2121
v -69.61485 0.0001001358 -26.57724
v -68.73175 9.822845E-05 -27.45757
v -68.17978 9.918213E-05 -26.60026
v -66.56989 9.918213E-05 -27.12911
v -66.58438 9.918213E-05 -26.43381

vt 3.496686E-12 5.802074E-15
vt -0.6142731 -0.7638702
vt 0.4503784 -1.448786
vt 1.061325 -2.037379
vt 1.776016 -3.028118
vt 2.427307 -4.538671
vt 2.779518 -5.881894
vt 2.952286 -7.306706
vt 2.938377 -8.756822
vt 2.806946 -10.49968
vt 2.490311 -11.7014
vt 2.083359 -12.49119
vt 1.216904 -13.20151
vt 0.429718 -13.74485
vt -0.6395493 -14.30981
vt -2.074615 -14.33282
vt -3.670013 -14.16637
vt -3.684502 -14.86167
vt -1.522644 -15.19013
vt -0.2992096 -14.94466
vt 1.406326 -14.55194
vt 2.201851 -13.67913
vt 3.20134 -12.37685
vt 3.475739 -10.76798
vt 3.821655 -9.256581
vt 3.594696 -6.857673
vt 3.383781 -5.675534
vt 2.834984 -3.994502
vt 2.290497 -2.746737
vt 1.75779 -1.973365
vt 0.90905 -0.9152765
vt -0.4503784 -1.448786
vt 0.6142731 -0.7638702
vt -0.90905 -0.9152765
vt -1.061325 -2.037379
vt -1.75779 -1.973365
vt -1.776016 -3.028118
vt -2.290497 -2.746737
vt -2.834984 -3.994502
vt -2.427307 -4.538671
vt -3.383781 -5.675534
vt -2.779518 -5.881894
vt -3.594696 -6.857673
vt -2.952286 -7.306706
vt -3.821655 -9.256581
vt -2.938377 -8.756822
vt -2.806946 -10.49968
vt -3.475739 -10.76798
vt -2.490311 -11.7014
vt -3.20134 -12.37685
vt -2.083359 -12.49119
vt -2.201851 -13.67913
vt -1.216904 -13.20151
vt -1.406326 -14.55194
vt -0.429718 -13.74485
vt 0.2992096 -14.94466
vt 0.6395493 -14.30981
vt 1.522644 -15.19013
vt 2.074615 -14.33282
vt 3.684502 -14.86167
vt 3.670013 -14.16637
vt 1.162612 1.724269E-08
vt -0.103323 1.72432E-08
vt 1.162612 6.38058
vt -0.1033231 6.38058
vt 0.9802189 2.956942E-13
vt 0.9802192 6.38058
vt 1.691638E-07 6.38058
vt -1.290001 -4.355596E-13
vt -1.290001 6.38058
vt 2.177876 1.894758E-08
vt 1.329525 1.894787E-08
vt 2.177876 6.38058
vt 1.329525 6.38058
vt -1.282769 -4.773617E-09
vt -2.639202 -4.774023E-09
vt -1.282769 6.38058
vt -2.639202 6.38058
vt 3.494859 1.003597E-08
vt 2.273242 1.003631E-08
vt 3.494859 6.38058
vt 2.273242 6.38058
vt -2.622267 -1.010011E-08
vt -3.561352 -1.010036E-08
vt -2.622267 6.38058
vt -3.561352 6.38058
vt -3.433569 -3.427511E-08
vt -4.79496 9.193989E-07
vt -3.433569 6.38058
vt -4.79496 6.380581
vt 5.128816 -1.482326E-08
vt 3.483839 -1.482294E-08
vt 5.128816 6.38058
vt 3.483839 6.38058
vt -4.677093 9.019778E-07
vt -6.445439 -5.169681E-08
vt -4.677093 6.380581
vt -6.445439 6.38058
vt 6.394544 -4.32571E-08
vt 5.00591 -4.325694E-08
vt 6.394544 6.38058
vt 5.00591 6.38058
vt -6.181642 -8.586981E-08
vt -7.382449 -8.586991E-08
vt -6.181642 6.38058
vt -7.382449 6.38058
vt 7.608956 -7.609262E-08
vt 6.173708 -7.609254E-08
vt 7.608956 6.38058
vt 6.173708 6.38058
vt -7.165766 -1.091024E-07
vt -9.575387 -1.091025E-07
vt -7.165766 6.38058
vt -9.575387 6.38058
vt 8.728238 -1.129256E-07
vt 7.278056 -1.129256E-07
vt 8.728238 6.38058
vt 7.278056 6.38058
vt 10.25888 -1.337125E-07
vt 8.511068 -1.337126E-07
vt 10.25888 6.38058
vt 8.511068 6.38058
vt -8.170646 -2.109177E-07
vt -9.721126 7.427568E-07
vt -8.170646 6.38058
vt -9.721126 6.380581
vt 10.68071 -1.947409E-07
vt 9.43798 -1.94741E-07
vt 10.68071 6.38058
vt 9.43798 6.38058
vt -10.03034 7.60784E-07
vt -11.66244 -1.146565E-06
vt -10.03034 6.380581
vt -11.66244 6.380579
vt 10.14957 7.021142E-07
vt 9.261101 -2.515603E-07
vt 10.14957 6.38058
vt 9.261101 6.380579
vt -7.869339 -1.252327E-06
vt -9.510962 -2.98652E-07
vt -7.869339 6.380579
vt -9.510962 6.380579
vt 7.428469 -2.601326E-07
vt 6.308071 6.935413E-07
vt 7.428469 6.380579
vt 6.308071 6.38058
vt -8.62661 -2.994164E-07
vt -9.807565 -2.99416E-07
vt -8.62661 6.380579
vt -9.807565 6.380579
vt 7.454229 -2.146285E-07
vt 6.497732 -2.146289E-07
vt 7.454229 6.38058
vt 6.497733 6.38058
vt -1.894872 -1.215486E-07
vt -3.645039 -1.075222E-06
vt -1.894873 6.38058
vt -3.645039 6.380579
vt 7.250411 7.38031E-07
vt 6.04107 -2.156439E-07
vt 7.250411 6.380581
vt 6.04107 6.38058
vt -3.233249 -1.047538E-06
vt -4.481066 -1.047538E-06
vt -3.233249 6.380579
vt -4.481066 6.380579
vt 2.304174 -8.565673E-09
vt 0.868923 9.45108E-07
vt 2.304174 6.38058
vt 0.8689232 6.380581
vt 0.7763509 -8.680978E-07
vt -1.410317 8.557754E-08
vt 0.7763506 6.380579
vt -1.410317 6.38058
vt 14.9352 1.260517E-07
vt 14.23975 1.260517E-07
vt 14.9352 6.38058
vt 14.23975 6.38058
vt 2.180179 5.611113E-08
vt 0.5761217 5.611036E-08
vt 2.180179 6.38058
vt 0.576122 6.38058

vn 4.809175E-13 1 -1.156408E-25
vn 3.136252E-34 -1 6.520236E-22
vn 0.5410352 -1.768968E-08 -0.841
vn 0.7792854 -2.32653E-08 0.6266693
vn -0.709516 2.877229E-08 0.7046893
vn 0.6938096 -2.592542E-08 -0.7201586
vn -0.7800522 3.499319E-08 0.6257145
vn 0.8110064 -3.030469E-08 -0.5850372
vn -0.8235374 3.077293E-08 0.5672619
vn -0.9165374 3.424804E-08 0.3999491
vn 0.918282 -3.431323E-08 -0.3959271
vn -0.9506239 3.552175E-08 0.3103451
vn 0.967299 -3.614484E-08 -0.2536386
vn -0.9844537 3.678585E-08 0.1756441
vn 0.9927285 -3.709505E-08 -0.1203747
vn -0.9955543 3.720065E-08 0.09418877
vn 0.999954 -3.736505E-08 0.009590788
vn 0.9971687 -3.726097E-08 0.07519781
vn -0.9747949 3.642493E-08 -0.223103
vn 0.9669966 -3.613354E-08 0.2547892
vn -0.9857654 3.683487E-08 -0.1681266
vn 0.8889325 -3.321653E-08 0.4580382
vn -0.7932917 2.964275E-08 -0.6088418
vn 0.6339849 -2.368997E-08 0.7733455
vn -0.7390702 2.761667E-08 -0.6736284
vn 0.5680586 -1.857324E-08 0.8229881
vn -0.2243918 8.384796E-09 -0.974499
vn 0.4671578 -1.745618E-08 0.8841739
vn -0.1967181 6.431892E-09 -0.9804601
vn 0.01603488 -5.991715E-10 0.9998714
vn 0.1502106 -5.612886E-09 -0.988654
vn 0.999783 -3.735866E-08 0.02083281
vn -0.1037684 3.87749E-09 0.9946015

usemtl ProBuilder_Default_URP
f 1/1/1 2/2/1 3/3/1
f 1/1/1 3/3/1 31/31/1
f 31/31/1 3/3/1 4/4/1
f 31/31/1 4/4/1 30/30/1
f 30/30/1 4/4/1 5/5/1
f 30/30/1 5/5/1 29/29/1
f 29/29/1 5/5/1 28/28/1
f 5/5/1 6/6/1 28/28/1
f 28/28/1 6/6/1 27/27/1
f 6/6/1 7/7/1 27/27/1
f 27/27/1 7/7/1 26/26/1
f 7/7/1 8/8/1 26/26/1
f 26/26/1 8/8/1 25/25/1
f 8/8/1 9/9/1 25/25/1
f 9/9/1 10/10/1 25/25/1
f 10/10/1 24/24/1 25/25/1
f 10/10/1 11/11/1 24/24/1
f 11/11/1 23/23/1 24/24/1
f 11/11/1 12/12/1 23/23/1
f 12/12/1 22/22/1 23/23/1
f 12/12/1 13/13/1 22/22/1
f 13/13/1 21/21/1 22/22/1
f 13/13/1 14/14/1 21/21/1
f 14/14/1 20/20/1 21/21/1
f 15/15/1 20/20/1 14/14/1
f 15/15/1 19/19/1 20/20/1
f 16/16/1 19/19/1 15/15/1
f 16/16/1 18/18/1 19/19/1
f 17/17/1 18/18/1 16/16/1
f 60/59/2 61/60/2 62/61/2
f 59/58/2 61/60/2 60/59/2
f 58/57/2 59/58/2 60/59/2
f 57/56/2 59/58/2 58/57/2
f 56/55/2 57/56/2 58/57/2
f 55/54/2 57/56/2 56/55/2
f 55/54/2 56/55/2 54/53/2
f 53/52/2 55/54/2 54/53/2
f 53/52/2 54/53/2 52/51/2
f 51/50/2 53/52/2 52/51/2
f 51/50/2 52/51/2 50/49/2
f 49/48/2 51/50/2 50/49/2
f 49/48/2 50/49/2 48/47/2
f 46/45/2 49/48/2 48/47/2
f 46/45/2 48/47/2 47/46/2
f 46/45/2 47/46/2 45/44/2
f 46/45/2 45/44/2 44/43/2
f 44/43/2 45/44/2 43/42/2
f 44/43/2 43/42/2 42/41/2
f 42/41/2 43/42/2 41/40/2
f 42/41/2 41/40/2 40/39/2
f 40/39/2 41/40/2 38/37/2
f 40/39/2 38/37/2 39/38/2
f 39/38/2 38/37/2 37/36/2
f 38/37/2 36/35/2 37/36/2
f 37/36/2 36/35/2 35/34/2
f 36/35/2 32/32/2 35/34/2
f 35/34/2 32/32/2 34/1/2
f 32/32/2 33/33/2 34/1/2
f 2/65/3 33/63/3 32/62/3
f 32/62/3 3/64/3 2/65/3
f 1/68/4 34/1/4 33/66/4
f 33/66/4 2/67/4 1/68/4
f 31/70/5 35/69/5 34/1/5
f 34/1/5 1/68/5 31/70/5
f 3/74/6 32/72/6 36/71/6
f 36/71/6 4/73/6 3/74/6
f 30/78/7 37/76/7 35/75/7
f 35/75/7 31/77/7 30/78/7
f 4/82/8 36/80/8 38/79/8
f 38/79/8 5/81/8 4/82/8
f 29/86/9 39/84/9 37/83/9
f 37/83/9 30/85/9 29/86/9
f 28/90/10 40/88/10 39/87/10
f 39/87/10 29/89/10 28/90/10
f 5/94/11 38/92/11 41/91/11
f 41/91/11 6/93/11 5/94/11
f 27/98/12 42/96/12 40/95/12
f 40/95/12 28/97/12 27/98/12
f 6/102/13 41/100/13 43/99/13
f 43/99/13 7/101/13 6/102/13
f 26/106/14 44/104/14 42/103/14
f 42/103/14 27/105/14 26/106/14
f 7/110/15 43/108/15 45/107/15
f 45/107/15 8/109/15 7/110/15
f 25/114/16 46/112/16 44/111/16
f 44/111/16 26/113/16 25/114/16
f 8/118/17 45/116/17 47/115/17
f 47/115/17 9/117/17 8/118/17
f 9/122/18 47/120/18 48/119/18
f 48/119/18 10/121/18 9/122/18
f 24/126/19 49/124/19 46/123/19
f 46/123/19 25/125/19 24/126/19
f 10/130/20 48/128/20 50/127/20
f 50/127/20 11/129/20 10/130/20
f 23/134/21 51/132/21 49/131/21
f 49/131/21 24/133/21 23/134/21
f 11/138/22 50/136/22 52/135/22
f 52/135/22 12/137/22 11/138/22
f 22/142/23 53/140/23 51/139/23
f 51/139/23 23/141/23 22/142/23
f 12/146/24 52/144/24 54/143/24
f 54/143/24 13/145/24 12/146/24
f 21/150/25 55/148/25 53/147/25
f 53/147/25 22/149/25 21/150/25
f 13/154/26 54/152/26 56/151/26
f 56/151/26 14/153/26 13/154/26
f 20/158/27 57/156/27 55/155/27
f 55/155/27 21/157/27 20/158/27
f 14/162/28 56/160/28 58/159/28
f 58/159/28 15/161/28 14/162/28
f 19/166/29 59/164/29 57/163/29
f 57/163/29 20/165/29 19/166/29
f 15/170/30 58/168/30 60/167/30
f 60/167/30 16/169/30 15/170/30
f 18/174/31 61/172/31 59/171/31
f 59/171/31 19/173/31 18/174/31
f 17/178/32 62/176/32 61/175/32
f 61/175/32 18/177/32 17/178/32
f 16/182/33 60/180/33 62/179/33
f 62/179/33 17/181/33 16/182/33

